<svg xmlns="http://www.w3.org/2000/svg" fill="none" viewBox="0 0 196 13" height="13" width="196">
<g clip-path="url(#clip0_1117_2)">
<path fill="white" d="M190.789 11.4223L195.789 1.42227C195.928 1.14457 196 0.838369 196 0.527869V-3.05176e-05L0 -3.05176e-05V0.527869C0 0.838369 0.0719985 1.14457 0.210999 1.42227L5.211 11.4223C5.948 12.8964 8.052 12.8964 8.789 11.4223L12.211 4.57768C12.948 3.10358 15.052 3.10358 15.789 4.57768L19.211 11.4223C19.948 12.8964 22.052 12.8964 22.789 11.4223L26.211 4.57768C26.948 3.10358 29.052 3.10358 29.789 4.57768L33.211 11.4223C33.948 12.8964 36.052 12.8964 36.789 11.4223L40.211 4.57768C40.948 3.10358 43.052 3.10358 43.789 4.57768L47.211 11.4223C47.948 12.8964 50.052 12.8964 50.789 11.4223L54.211 4.57768C54.948 3.10358 57.052 3.10358 57.789 4.57768L61.211 11.4223C61.948 12.8964 64.052 12.8964 64.789 11.4223L68.211 4.57768C68.948 3.10358 71.052 3.10359 71.789 4.57768L75.211 11.4223C75.948 12.8964 78.052 12.8964 78.789 11.4223L82.211 4.57768C82.948 3.10358 85.052 3.10358 85.789 4.57768L89.211 11.4223C89.948 12.8964 92.052 12.8964 92.789 11.4223L96.2112 4.57768C96.9482 3.10358 99.0518 3.10358 99.7889 4.57768L103.211 11.4223C103.948 12.8964 106.052 12.8964 106.789 11.4223L110.211 4.57768C110.948 3.10358 113.052 3.10358 113.789 4.57768L117.211 11.4223C117.948 12.8964 120.052 12.8964 120.789 11.4223L124.211 4.57768C124.948 3.10358 127.052 3.10358 127.789 4.57768L131.211 11.4223C131.948 12.8964 134.052 12.8964 134.789 11.4223L138.211 4.57768C138.948 3.10358 141.052 3.10358 141.789 4.57768L145.211 11.4223C145.948 12.8964 148.052 12.8964 148.789 11.4223L152.211 4.57768C152.948 3.10358 155.052 3.10358 155.789 4.57768L159.211 11.4223C159.948 12.8964 162.052 12.8964 162.789 11.4223L166.211 4.57768C166.948 3.10358 169.052 3.10358 169.789 4.57768L173.211 11.4223C173.948 12.8964 176.052 12.8964 176.789 11.4223L180.211 4.57768C180.948 3.10358 183.052 3.10358 183.789 4.57768L187.211 11.4223C187.948 12.8964 190.052 12.8964 190.789 11.4223Z"></path>
</g>
<defs>
<clipPath id="clip0_1117_2">
<rect transform="matrix(-1 0 0 -1 196 13)" fill="white" height="13" width="196"></rect>
</clipPath>
</defs>
</svg>
