<svg xmlns="http://www.w3.org/2000/svg" fill="none" viewBox="0 0 196 21" height="21" width="196">
<path fill="#834FD9" d="M5.21114 19.4223L0.211146 9.42229C0.0722902 9.14458 0 8.83836 0 8.52786V0H196V8.52786C196 8.83835 195.928 9.14458 195.789 9.42229L190.789 19.4223C190.052 20.8964 187.948 20.8964 187.211 19.4223L183.789 12.5777C183.052 11.1036 180.948 11.1036 180.211 12.5777L176.789 19.4223C176.052 20.8964 173.948 20.8964 173.211 19.4223L169.789 12.5777C169.052 11.1036 166.948 11.1036 166.211 12.5777L162.789 19.4223C162.052 20.8964 159.948 20.8964 159.211 19.4223L155.789 12.5777C155.052 11.1036 152.948 11.1036 152.211 12.5777L148.789 19.4223C148.052 20.8964 145.948 20.8964 145.211 19.4223L141.789 12.5777C141.052 11.1036 138.948 11.1036 138.211 12.5777L134.789 19.4223C134.052 20.8964 131.948 20.8964 131.211 19.4223L127.789 12.5777C127.052 11.1036 124.948 11.1036 124.211 12.5777L120.789 19.4223C120.052 20.8964 117.948 20.8964 117.211 19.4223L113.789 12.5777C113.052 11.1036 110.948 11.1036 110.211 12.5777L106.789 19.4223C106.052 20.8964 103.948 20.8964 103.211 19.4223L99.7888 12.5777C99.0518 11.1036 96.9482 11.1036 96.2111 12.5777L92.7888 19.4223C92.0518 20.8964 89.9482 20.8964 89.2111 19.4223L85.7888 12.5777C85.0518 11.1036 82.9482 11.1036 82.2111 12.5777L78.7888 19.4223C78.0518 20.8964 75.9482 20.8964 75.2111 19.4223L71.7888 12.5777C71.0518 11.1036 68.9482 11.1036 68.2111 12.5777L64.7888 19.4223C64.0518 20.8964 61.9482 20.8964 61.2111 19.4223L57.7888 12.5777C57.0518 11.1036 54.9482 11.1036 54.2111 12.5777L50.7888 19.4223C50.0518 20.8964 47.9482 20.8964 47.2111 19.4223L43.7888 12.5777C43.0518 11.1036 40.9482 11.1036 40.2111 12.5777L36.7888 19.4223C36.0518 20.8964 33.9482 20.8964 33.2111 19.4223L29.7889 12.5777C29.0518 11.1036 26.9482 11.1036 26.2111 12.5777L22.7889 19.4223C22.0518 20.8964 19.9482 20.8964 19.2111 19.4223L15.7889 12.5777C15.0518 11.1036 12.9482 11.1036 12.2111 12.5777L8.78885 19.4223C8.05181 20.8964 5.94819 20.8964 5.21114 19.4223Z"></path>
</svg>
